# xmcd
#
# Track frame offsets: 
#        150
#        13035
#        22680
#        34662
#        45197
#        61850
#        74347
#        87960
#        102412
#        112262
#        125792
#        137682
#        149505
#        160632
#        172480
#        185040
#        195212
#        208820
#        220305
#        230112
#
# Disc length: 3259 seconds
#
# Revision: 1
# Processed by: cddbd v1.5.1PL0 Copyright (c) Steve Scherf et al.
# Submitted via: ExactAudioCopy v0.95b3
#
DISCID=280cb914
DTITLE=Freddy Fender - The Best Of Freddy Fender
DYEAR=1900
DGENRE=Country
TTITLE0=Silver Wings
TTITLE1=Your Cheating Heart
TTITLE2=Talk To Me, Talk To Me
TTITLE3=A Man Can Cry
TTITLE4=Wild Side Of Life
TTITLE5=Wasted Days And Wasted Nights
TTITLE6=(I'll Remember) In The Still Of The Night
TTITLE7=Since I Met You Baby
TTITLE8=High School Dance
TTITLE9=Baby I Want To Love You
TTITLE10=Before The Next Teardrop Falls
TTITLE11=Sweet Summer Day
TTITLE12=Mathilda
TTITLE13=I'm Leaving It All Up To You
TTITLE14=Enter My Heart
TTITLE15=Crazy Baby
TTITLE16=These Arms Of Mine
TTITLE17=She's About A Mover
TTITLE18=Let The Good Times Roll
TTITLE19=La Bamba
EXTD=
EXTT0=
EXTT1=
EXTT2=
EXTT3=
EXTT4=
EXTT5=
EXTT6=
EXTT7=
EXTT8=
EXTT9=
EXTT10=
EXTT11=
EXTT12=
EXTT13=
EXTT14=
EXTT15=
EXTT16=
EXTT17=
EXTT18=
EXTT19=
PLAYORDER=
